<?xml version="1.0" encoding="UTF-8"?>
<svg width="212px" height="200px" viewBox="0 0 212 200" version="1.1" xmlns="http://www.w3.org/2000/svg" xmlns:xlink="http://www.w3.org/1999/xlink">
    <title>Logo</title>
    <defs>
        <path d="M0.601694915,62.4056604 L0.601694915,30.9577954 L34.9456949,30.9573396 L34.9460586,0.594339623 L70.3983051,0.594339623 L70.3983051,62.4056604 L0.601694915,62.4056604 Z" id="path-1"></path>
        <linearGradient x1="50%" y1="3.061617e-15%" x2="50%" y2="100%" id="linearGradient-3">
            <stop stop-color="#00FFE0" offset="0%"></stop>
            <stop stop-color="#3797B3" offset="100%"></stop>
        </linearGradient>
        <rect id="path-4" x="0.592592593" y="0.603448276" width="30.8148148" height="33.7931034"></rect>
        <linearGradient x1="50%" y1="3.061617e-15%" x2="50%" y2="100%" id="linearGradient-6">
            <stop stop-color="#FFFFFF" offset="0%"></stop>
            <stop stop-color="#00FFE0" offset="100%"></stop>
        </linearGradient>
        <linearGradient x1="50%" y1="3.061617e-15%" x2="50%" y2="100%" id="linearGradient-7">
            <stop stop-color="#294B86" offset="0%"></stop>
            <stop stop-color="#00FFE0" offset="100%"></stop>
        </linearGradient>
        <path d="M73,59.9991789 C73,67.1769721 67.1786143,73 59.9991789,73 C52.82467,73 47.0032843,67.1786143 47,60.0008211 C47.0016421,52.8213857 52.82467,47.0016421 60.0008211,47 C67.1786143,47.0016421 73,52.8213857 73,59.9991789 Z" id="path-8"></path>
        <filter x="-57.7%" y="-57.7%" width="215.4%" height="215.4%" filterUnits="objectBoundingBox" id="filter-9">
            <feOffset dx="0" dy="0" in="SourceAlpha" result="shadowOffsetOuter1"></feOffset>
            <feGaussianBlur stdDeviation="5" in="shadowOffsetOuter1" result="shadowBlurOuter1"></feGaussianBlur>
            <feColorMatrix values="0 0 0 0 1   0 0 0 0 1   0 0 0 0 1  0 0 0 1 0" type="matrix" in="shadowBlurOuter1"></feColorMatrix>
        </filter>
        <path d="M13.2916667,15.5 L13.2916667,0 L29,0 L29,31 L0,31 L0,15.5 L13.2916667,15.5 Z" id="path-10"></path>
        <linearGradient x1="50%" y1="3.061617e-15%" x2="50%" y2="100%" id="linearGradient-12">
            <stop stop-color="#00FFE0" offset="0%"></stop>
            <stop stop-color="#2E9BBB" offset="100%"></stop>
        </linearGradient>
        <linearGradient x1="50%" y1="3.061617e-15%" x2="50%" y2="100%" id="linearGradient-13">
            <stop stop-color="#00FFE0" offset="0%"></stop>
            <stop stop-color="#2E9BBB" offset="100%"></stop>
        </linearGradient>
        <linearGradient x1="50%" y1="3.061617e-15%" x2="50%" y2="100%" id="linearGradient-14">
            <stop stop-color="#FFFFFF" offset="0%"></stop>
            <stop stop-color="#00FFE0" offset="100%"></stop>
        </linearGradient>
        <linearGradient x1="50%" y1="3.061617e-15%" x2="50%" y2="100%" id="linearGradient-15">
            <stop stop-color="#FFFFFF" offset="0%"></stop>
            <stop stop-color="#00FFE0" offset="100%"></stop>
        </linearGradient>
    </defs>
    <g id="Page-2" stroke="none" stroke-width="1" fill="none" fill-rule="evenodd">
        <g id="Home-2" transform="translate(-141.000000, -160.000000)">
            <g id="Header">
                <g id="Logo" transform="translate(141.000000, 160.000000)">
                    <text id="Quickpoint" font-family="Poppins-SemiBold, Poppins" font-size="30" font-weight="500" fill="#FFFFFF">
                        <tspan x="23.34" y="161">Quickpoint</tspan>
                    </text>
                    <text id="Business-Support-Por" font-family="Poppins-Medium, Poppins" font-size="18" font-weight="400" fill="#FFFFFF">
                        <tspan x="0.007" y="194">Business Support Portal</tspan>
                    </text>
                    <g id="Mark" transform="translate(106.000000, 60.500000) rotate(180.000000) translate(-106.000000, -60.500000) translate(46.000000, 0.000000)">
                        <g id="Combined-Shape" transform="translate(24.000000, 29.000000)">
                            <mask id="mask-2" fill="white">
                                <use xlink:href="#path-1"></use>
                            </mask>
                            <g id="Mask"></g>
                            <path d="M36.1047492,4.16037736 C51.7198013,4.16628304 64.3798288,16.4043353 64.3813559,31.4977854 C64.3798288,46.5956647 51.7182741,58.8396226 36.1001678,58.8396226 C20.4896972,58.8396226 7.82661533,46.5971412 7.8220339,31.5022146 C7.82508819,16.4043353 20.4927514,4.16628304 36.1047492,4.16037736 Z M36.104461,6.74055425 C21.9658455,6.74590258 10.4936929,17.8289886 10.4909269,31.5020056 C10.495076,45.1723485 21.9630794,56.2594458 36.1003119,56.2594458 C50.2444595,56.2594458 61.7110799,45.1710114 61.7124629,31.4979944 C61.7110799,17.8289886 50.2458425,6.74590258 36.104461,6.74055425 Z" fill="url(#linearGradient-3)" mask="url(#mask-2)"></path>
                        </g>
                        <g id="Combined-Shape" transform="translate(24.000000, 22.000000)">
                            <mask id="mask-5" fill="white">
                                <use xlink:href="#path-4"></use>
                            </mask>
                            <g id="Mask"></g>
                            <path d="M32.5955367,6.63793103 C47.6471581,6.64405758 59.8503798,19.3397881 59.8518519,34.9977025 C59.8503798,50.6602119 47.6456861,63.362069 32.5911206,63.362069 C17.5439152,63.362069 5.33774946,50.6617436 5.33333333,35.0022975 C5.33627742,19.3397881 17.5468593,6.64405758 32.5955367,6.63793103 Z M32.5952588,9.31460129 C18.9668004,9.32014964 7.90859216,20.8177206 7.90592593,35.0020806 C7.90992528,49.1836665 18.9641342,60.6853987 32.5912595,60.6853987 C46.2250504,60.6853987 57.2779261,49.1822794 57.2792593,34.9979194 C57.2779261,20.8177206 46.2263835,9.32014964 32.5952588,9.31460129 Z" fill="url(#linearGradient-6)" mask="url(#mask-5)"></path>
                        </g>
                        <g id="Fill-52">
                            <use fill="black" fill-opacity="1" filter="url(#filter-9)" xlink:href="#path-8"></use>
                            <use fill="url(#linearGradient-7)" fill-rule="evenodd" xlink:href="#path-8"></use>
                        </g>
                        <g id="Combined-Shape" transform="translate(44.000000, 45.000000)">
                            <mask id="mask-11" fill="white">
                                <use xlink:href="#path-10"></use>
                            </mask>
                            <g id="Mask"></g>
                            <path d="M15.7091611,2.00610501 C22.9456251,2.00773861 28.8145944,7.7972365 28.8145944,14.9377261 C28.8145944,22.0782158 22.9456251,27.8709809 15.7075056,27.8709809 C8.47435272,27.8709809 2.60538344,22.0798494 2.60207231,14.9393597 C2.60372787,7.7972365 8.47435272,2.00773861 15.7091611,2.00610501 Z M15.7090202,4.20777371 C9.70589381,4.2091292 4.83470705,9.01300038 4.83333333,14.9392207 C4.83608076,20.8640855 9.70589381,25.6693122 15.7076465,25.6693122 C21.7135203,25.6693122 26.5833333,20.86273 26.5833333,14.9378652 C26.5833333,9.01300038 21.7135203,4.2091292 15.7090202,4.20777371 Z" fill="#FFFFFF" mask="url(#mask-11)"></path>
                        </g>
                        <g id="Group-6" opacity="0.3" transform="translate(5.000000, 4.000000)" fill="#FFFFFF">
                            <g id="Group-8" transform="translate(0.000000, 0.871893)">
                                <path d="M55.319291,2.9720205e-14 C56.7871217,2.9720205e-14 57.9765185,1.1877855 57.9765185,2.65176509 C57.9765185,4.11574468 56.7871217,5.30353018 55.3177778,5.30353018 C53.8499471,5.30353018 52.6605503,4.11574468 52.659037,2.65176509 C52.659037,1.1877855 53.8499471,2.9720205e-14 55.319291,2.9720205e-14" id="Fill-5"></path>
                                <path d="M94.09962,16.144602 C95.1237598,17.1647131 95.1237598,18.8183043 94.09962,19.8369283 C93.0754801,20.8585265 91.4177748,20.8585265 90.3966165,19.8369283 C89.3739674,18.8183043 89.3739674,17.1647131 90.3966165,16.1431149 C91.4177748,15.1230038 93.0754801,15.1244909 94.09962,16.144602" id="Fill-8"></path>
                                <path d="M110,55.1433868 C110,56.5863311 108.828027,57.7555622 107.380208,57.7540761 C105.932388,57.7555622 104.760415,56.5848435 104.761905,55.1433868 C104.760415,53.7004426 105.932388,52.5312114 107.381699,52.5297238 C108.828027,52.5297238 109.998509,53.7004426 110,55.1433868" id="Fill-10"></path>
                                <path d="M94.1007377,94.140046 C93.0765979,95.160266 91.4188928,95.160266 90.3977345,94.1385588 C89.3735947,93.1183387 89.3735947,91.4645709 90.3977345,90.445838 C91.4188928,89.425618 93.0765979,89.425618 94.1007377,90.445838 C95.1248775,91.4645709 95.121896,93.1183387 94.1007377,94.140046" id="Fill-12"></path>
                                <path d="M54.9977641,109.997598 C53.5514359,109.997598 52.3794627,108.827213 52.3809524,107.384679 C52.3794627,105.940659 53.5514359,104.77176 54.9992552,104.773246 C56.4455834,104.77176 57.6175566,105.940659 57.6190476,107.386166 C57.6190476,108.827213 56.4455834,109.996111 54.9977641,109.997598" id="Fill-14"></path>
                                <path d="M15.90038,94.139198 C14.8762402,93.1205739 14.8762402,91.4654957 15.90038,90.4468716 C16.9245199,89.4252734 18.5822252,89.4252734 19.6033835,90.4468716 C20.6260326,91.4640086 20.6260326,93.1190868 19.6033835,94.140685 C18.5822252,95.1607961 16.9245199,95.1593091 15.90038,94.139198" id="Fill-16"></path>
                                <path d="M2.9798386e-14,55.1396699 C2.9798386e-14,53.6986236 1.17197317,52.5282381 2.61979244,52.5297238 C4.06761171,52.5282381 5.23958488,53.6971364 5.23809524,55.1411571 C5.23958488,56.5822035 4.06761171,57.7511018 2.61830138,57.7540761 C1.17197317,57.7525889 0.00149106001,56.5822035 2.9798386e-14,55.1396699" id="Fill-18"></path>
                                <path d="M15.8992623,16.143754 C16.9234021,15.1235339 18.5811072,15.1235339 19.6022655,16.1452412 C20.6264053,17.163974 20.6264053,18.819229 19.6022655,19.8379619 C18.5811072,20.8581819 16.9234021,20.8581819 15.8992623,19.8379619 C14.8751225,18.819229 14.878104,17.163974 15.8992623,16.143754" id="Fill-20"></path>
                            </g>
                            <g id="Group-4" transform="translate(3.586957, 5.637850)">
                                <path d="M72.0969542,0.17846831 C73.450909,0.699959516 74.1226386,2.20386333 73.5933517,3.53935356 C73.0640648,4.87484379 71.53618,5.53372503 70.1807257,5.01223382 C68.8267709,4.49221993 68.1565407,2.9868388 68.6858276,1.65134857 C69.2136151,0.317335656 70.7429993,-0.343022897 72.0969542,0.17846831" id="Fill-22"></path>
                                <path d="M102.827212,29.239439 C103.411978,30.5512277 102.804721,32.0816478 101.471754,32.656294 C100.138787,33.2324174 98.5854083,32.6341354 98.0021415,31.3223467 C97.4188747,30.010558 98.0246325,28.4801379 99.3575995,27.9040145 C100.689067,27.3278911 102.240947,27.9261731 102.827212,29.239439" id="Fill-24"></path>
                                <path d="M103.45411,71.0213238 C102.924714,72.3569858 101.396513,73.0159518 100.042278,72.492916 C98.6865435,71.9728352 98.0176745,70.4672605 98.5470708,69.133076 C99.0749675,67.7988915 100.603168,67.138448 101.960402,67.6600063 C103.313138,68.1800871 103.983506,69.6856618 103.45411,71.0213238" id="Fill-26"></path>
                                <path d="M73.9529398,101.291374 C72.621423,101.867473 71.0664873,101.269216 70.4846985,99.9560059 C69.8984113,98.6442727 70.5056909,97.1124401 71.8387071,96.5392955 C73.1702238,95.9631964 74.7221606,96.5599759 75.3084478,97.8731863 C75.8932356,99.1849195 75.2844565,100.713798 73.9529398,101.291374" id="Fill-28"></path>
                                <path d="M31.5378855,101.90934 C30.1837562,101.3878 29.5119401,99.8837562 30.0427948,98.5496191 C30.5706503,97.212527 32.1002315,96.5521069 33.4543608,97.0766016 C34.80849,97.5951865 35.4788065,99.0992304 34.9494515,100.4378 C34.421596,101.771937 32.8920147,102.429402 31.5378855,101.90934" id="Fill-30"></path>
                                <path d="M1.39360046,72.8476245 C0.80883429,71.5360437 1.41609147,70.005866 2.74905846,69.4313109 C4.08202545,68.8552788 5.63540431,69.451989 6.21867108,70.7650468 C6.80193785,72.0766276 6.19618007,73.6068053 4.86321308,74.1843144 C3.53174549,74.7588695 1.97986603,74.1606823 1.39360046,72.8476245" id="Fill-32"></path>
                                <path d="M0.180597708,31.0662135 C0.710055921,29.7323253 2.23843529,29.0720286 3.5928284,29.593471 C4.94872138,30.1149134 5.61766858,31.6201538 5.08821037,32.9540419 C4.56025204,34.2879301 3.03187267,34.9482269 1.6744798,34.4282616 C0.321586581,33.9068192 -0.347360622,32.4015788 0.180597708,31.0662135" id="Fill-34"></path>
                                <path d="M29.6823626,0.796020756 C31.0138794,0.21998857 32.5688151,0.818175841 33.1506039,2.13123382 C33.7368911,3.4428148 33.1296115,4.97446962 31.7965953,5.5490248 C30.4650786,6.12357998 28.9131418,5.52686971 28.3268546,4.21381173 C27.7420668,2.90223075 28.3508459,1.37205294 29.6823626,0.796020756" id="Fill-36"></path>
                            </g>
                        </g>
                        <g id="Group-6">
                            <g id="Group-8" transform="translate(0.000000, 0.000000)">
                                <path d="M60.3483175,3.24536877e-14 C61.9495873,3.24536877e-14 63.2471111,1.29703075 63.2471111,2.89565823 C63.2471111,4.49428571 61.9495873,5.79131646 60.3466667,5.79131646 C58.7453968,5.79131646 57.447873,4.49428571 57.4462222,2.89565823 C57.4462222,1.29703075 58.7453968,3.24536877e-14 60.3483175,3.24536877e-14" id="Fill-5" fill="url(#linearGradient-12)"></path>
                                <path d="M102.654131,17.6294838 C103.771374,18.7434184 103.771374,20.5490968 102.654131,21.6614077 C101.536887,22.7769662 99.7284816,22.7769662 98.6144907,21.6614077 C97.4988735,20.5490968 97.4988735,18.7434184 98.6144907,17.6278599 C99.7284816,16.5139253 101.536887,16.5155491 102.654131,17.6294838" id="Fill-8" fill="url(#linearGradient-13)"></path>
                                <path d="M120,60.2151384 C120,61.7907959 118.721484,63.0675657 117.142045,63.0659429 C115.562605,63.0675657 114.284089,61.7891715 114.285714,60.2151384 C114.284089,58.639481 115.562605,57.3627111 117.143671,57.3610867 C118.721484,57.3610867 119.998373,58.639481 120,60.2151384" id="Fill-10" fill="url(#linearGradient-13)"></path>
                                <path d="M102.65535,102.798472 C101.538107,103.912526 99.7297012,103.912526 98.6157103,102.796848 C97.4984669,101.682794 97.4984669,99.8769229 98.6157103,98.7644933 C99.7297012,97.6504396 101.538107,97.6504396 102.65535,98.7644933 C103.772594,99.8769229 103.769341,101.682794 102.65535,102.798472" id="Fill-12" fill="url(#linearGradient-13)"></path>
                                <path d="M59.9975609,120.114505 C58.4197483,120.114505 57.1412321,118.836475 57.1428571,117.261266 C57.1412321,115.684433 58.4197483,114.408026 59.9991875,114.409649 C61.5770001,114.408026 62.8555162,115.684433 62.8571429,117.26289 C62.8571429,118.836475 61.5770001,120.112881 59.9975609,120.114505" id="Fill-14" fill="url(#linearGradient-13)"></path>
                                <path d="M17.3458691,102.797546 C16.2286256,101.685235 16.2286256,99.8779328 17.3458691,98.7656219 C18.4631126,97.6500634 20.2715184,97.6500634 21.3855093,98.7656219 C22.5011265,99.876309 22.5011265,101.683611 21.3855093,102.79917 C20.2715184,103.913104 18.4631126,103.911481 17.3458691,102.797546" id="Fill-16" fill="url(#linearGradient-13)"></path>
                                <path d="M3.25073302e-14,60.2110797 C3.25073302e-14,58.6374947 1.27851618,57.3594643 2.85795539,57.3610867 C4.43739459,57.3594643 5.71591077,58.6358707 5.71428571,60.2127036 C5.71591077,61.7862886 4.43739459,63.062695 2.85632878,63.0659429 C1.27851618,63.064319 0.00162661092,61.7862886 3.25073302e-14,60.2110797" id="Fill-18" fill="url(#linearGradient-13)"></path>
                                <path d="M17.3446498,17.6285578 C18.4618932,16.5145041 20.2702988,16.5145041 21.3842897,17.6301817 C22.5015331,18.7426114 22.5015331,20.5501067 21.3842897,21.6625363 C20.2702988,22.77659 18.4618932,22.77659 17.3446498,21.6625363 C16.2274064,20.5501067 16.2306589,18.7426114 17.3446498,17.6285578" id="Fill-20" fill="url(#linearGradient-13)"></path>
                            </g>
                            <g id="Group-4" transform="translate(3.809524, 4.115762)" fill="url(#linearGradient-14)">
                                <path d="M78.1811235,0.196139173 C79.6493368,0.769265316 80.3777528,2.42207669 79.8038,3.88979916 C79.2298473,5.35752163 77.5730263,6.08164135 76.103187,5.50851521 C74.6349736,4.93701265 73.9081836,3.28257769 74.4821363,1.81485522 C75.0544631,0.348756333 76.7129101,-0.37698697 78.1811235,0.196139173" id="Fill-22"></path>
                                <path d="M111.504668,32.1345532 C112.138782,33.5762274 111.480279,35.2581805 110.034825,35.8897247 C108.589371,36.5228924 106.904904,35.8653721 106.272416,34.423698 C105.639928,32.9820238 106.296805,31.3000706 107.74226,30.6669029 C109.186088,30.0337352 110.868929,30.6912556 111.504668,32.1345532" id="Fill-24"></path>
                                <path d="M112.184469,78.05343 C111.610398,79.5213413 109.953234,80.2455541 108.484717,79.6707305 C107.014574,79.0991544 106.28926,77.4445067 106.863331,75.9782192 C107.435777,74.5119318 109.09294,73.7860951 110.56471,74.359295 C112.0316,74.9308711 112.758541,76.5855188 112.184469,78.05343" id="Fill-26"></path>
                                <path d="M80.1937333,111.320639 C78.7498516,111.95378 77.0636969,111.296288 76.4328116,109.853051 C75.7970484,108.411438 76.4555755,106.727933 77.9010832,106.098038 C79.344965,105.464898 81.0278677,106.120767 81.6636309,107.564003 C82.2977682,109.005616 81.637615,110.685875 80.1937333,111.320639" id="Fill-28"></path>
                                <path d="M34.1993271,111.999793 C32.7309246,111.426613 32.0024148,109.773648 32.5780676,108.307412 C33.1504682,106.837929 34.8091288,106.112118 36.2775313,106.688545 C37.7459338,107.258478 38.4728174,108.911443 37.8987907,110.38255 C37.3263902,111.848785 35.6677296,112.571348 34.1993271,111.999793" id="Fill-30"></path>
                                <path d="M1.51120461,80.0605601 C0.877090777,78.6191144 1.53559361,76.9374277 2.98104797,76.3059836 C4.42650233,75.6729163 6.11096883,76.3287091 6.74345674,77.7717781 C7.37594464,79.2132238 6.71906774,80.8949104 5.27361338,81.529601 C3.82978495,82.1610451 2.14694438,81.503629 1.51120461,80.0605601" id="Fill-32"></path>
                                <path d="M0.195838117,34.142204 C0.769976627,32.6762422 2.42733397,31.9505668 3.89602257,32.5236393 C5.36633762,33.0967118 6.09173642,34.7509921 5.51759791,36.2169538 C4.94508585,37.6829156 3.28772851,38.408591 1.815787,37.8371419 C0.348724859,37.2640694 -0.376673939,35.6097892 0.195838117,34.142204" id="Fill-34"></path>
                                <path d="M32.1872191,0.874837966 C33.6311008,0.241770521 35.3172555,0.899186714 35.9481408,2.34225584 C36.583904,3.78370171 35.9253769,5.46701181 34.4798691,6.09845601 C33.0359874,6.7299002 31.3530847,6.07410726 30.7173215,4.63103814 C30.0831842,3.18959226 30.7433373,1.50790541 32.1872191,0.874837966" id="Fill-36"></path>
                            </g>
                        </g>
                        <g id="Group-7" transform="translate(18.000000, 20.000000)" fill="#FFFFFF" fill-opacity="0.3">
                            <path d="M41.792769,0.255252101 C43.120161,0.255252101 44.1985661,1.32154717 44.1985661,2.63760504 C44.1985661,3.95366292 43.120161,5.01995798 41.792769,5.01995798 C40.4653769,5.01995798 39.3869719,3.95366292 39.3869719,2.63760504 C39.3869719,1.32154717 40.4653769,0.255252101 41.792769,0.255252101" id="Fill-54"></path>
                            <path d="M71.1602542,11.6733779 C72.0994172,12.6050288 72.1010336,14.1113578 71.1602542,15.0430086 C70.2210911,15.9730587 68.6983862,15.9730587 67.7592231,15.0430086 C66.8184437,14.1129585 66.8184437,12.6050288 67.7592231,11.6733779 C68.6983862,10.7433278 70.2210911,10.7433278 71.1602542,11.6733779" id="Fill-56"></path>
                            <path d="M82.6913197,40.7552512 C82.6913197,42.0713086 81.6165094,43.1392043 80.2863307,43.137605 C78.9593845,43.137605 77.8797255,42.0713086 77.8797255,40.7552512 C77.8797255,39.4391938 78.9577683,38.3728992 80.287947,38.3728992 C81.6165094,38.3728992 82.6913197,39.4407949 82.6913197,40.7552512" id="Fill-58"></path>
                            <path d="M71.1602838,68.6453787 C70.2211602,69.5753898 68.6985192,69.5769905 67.7593957,68.6453787 C66.8186557,67.7153677 66.8186557,66.2075013 67.7577793,65.2774903 C68.6985192,64.3458786 70.2211602,64.3458786 71.1602838,65.2774903 C72.1010237,66.2075013 72.0994073,67.7153677 71.1602838,68.6453787" id="Fill-60"></path>
                            <path d="M41.7927699,80.0640756 C40.4653783,80.0640756 39.3853569,78.9977806 39.3869719,77.6817227 C39.3869719,76.3672659 40.4653783,75.2993697 41.7911531,75.2993697 C43.1201614,75.2993697 44.1985661,76.3656648 44.1985661,77.6833237 C44.1985661,78.9977806 43.1201614,80.0640756 41.7927699,80.0640756" id="Fill-62"></path>
                            <path d="M12.4251062,68.6453202 C11.4861797,67.7152311 11.4845637,66.2072383 12.4251062,65.2771492 C13.3640326,64.3470602 14.886354,64.3454594 15.8252805,65.2755484 C16.767439,66.2072383 16.767439,67.7152311 15.8252805,68.6453202 C14.886354,69.57701 13.3640326,69.5754092 12.4251062,68.6453202" id="Fill-64"></path>
                            <path d="M0.894218235,40.7552521 C0.894218235,39.4407963 1.9690285,38.3712999 3.29920721,38.3728992 C4.62615341,38.3728992 5.70581244,39.4391952 5.70581244,40.7552521 C5.70581244,42.071309 4.62776967,43.1392043 3.29759095,43.137605 C1.9690285,43.1392043 0.894218235,42.071309 0.894218235,40.7552521" id="Fill-66"></path>
                            <path d="M12.4251653,11.673949 C13.3641705,10.743938 14.8866195,10.7423373 15.8256247,11.673949 C16.7662461,12.60396 16.7678623,14.1134271 15.8272409,15.0418374 C14.8866195,15.9734491 13.3641705,15.9734491 12.4251653,15.0418374 C11.4845439,14.1118264 11.4861601,12.6055607 12.4251653,11.673949" id="Fill-68"></path>
                        </g>
                        <g id="Group-7" transform="translate(16.000000, 17.000000)" fill="url(#linearGradient-15)">
                            <path d="M44.0095673,1.46074933e-13 C45.4172288,1.46074933e-13 46.5608466,1.12892705 46.5608466,2.52228745 C46.5608466,3.91564786 45.4172288,5.04457491 44.0095673,5.04457491 C42.6019058,5.04457491 41.458288,3.91564786 41.458288,2.52228745 C41.458288,1.12892705 42.6019058,1.46074933e-13 44.0095673,1.46074933e-13" id="Fill-54"></path>
                            <path d="M74.5151286,12.7193749 C75.5110842,13.705749 75.5127984,15.3005567 74.5151286,16.2869308 C73.519173,17.2716101 71.9043878,17.2716101 70.9084321,16.2869308 C69.9107623,15.3022515 69.9107623,13.705749 70.9084321,12.7193749 C71.9043878,11.7346956 73.519173,11.7346956 74.5151286,12.7193749" id="Fill-56"></path>
                            <path d="M87.3813148,43.5094576 C87.3813148,44.9028175 86.2415091,46.0334392 84.8308925,46.031746 C83.4237039,46.031746 82.2787563,44.9028175 82.2787563,43.5094576 C82.2787563,42.1160977 83.4219899,40.9871711 84.8326065,40.9871711 C86.2415091,40.9871711 87.3813148,42.1177928 87.3813148,43.5094576" id="Fill-58"></path>
                            <path d="M74.51516,73.6683658 C73.5192462,74.6530037 71.9045289,74.6546984 70.9086151,73.6683658 C69.9109872,72.6837278 69.9109872,71.0872924 70.906901,70.1026545 C71.9045289,69.1163218 73.5192462,69.1163218 74.51516,70.1026545 C75.5127879,71.0872924 75.5110738,72.6837278 74.51516,73.6683658" id="Fill-60"></path>
                            <path d="M44.0095683,86.3883453 C42.6019073,86.3883453 41.4565754,85.2594182 41.458288,83.8660578 C41.458288,82.4743925 42.6019073,81.3437704 44.0078537,81.3437704 C45.4172292,81.3437704 46.5608466,82.4726974 46.5608466,83.8677529 C46.5608466,85.2594182 45.4172292,86.3883453 44.0095683,86.3883453" id="Fill-62"></path>
                            <path d="M12.8659979,73.6683038 C11.8702931,72.6835832 11.8685793,71.0870139 12.8659979,70.1022934 C13.8617026,69.1175728 15.4760811,69.115878 16.4717858,70.1005985 C17.4709181,71.0870139 17.4709181,72.6835832 16.4717858,73.6683038 C15.4760811,74.6547192 13.8617026,74.6530243 12.8659979,73.6683038" id="Fill-64"></path>
                            <path d="M-5.67460842e-14,43.5094586 C-5.67460842e-14,42.1177943 1.13980565,40.9854779 2.55042227,40.9871711 C3.9576109,40.9871711 5.10255853,42.1160992 5.10255853,43.5094586 C5.10255853,44.9028179 3.95932489,46.0334392 2.54870827,46.031746 C1.13980565,46.0334392 -5.67460842e-14,44.9028179 -5.67460842e-14,43.5094586" id="Fill-66"></path>
                            <path d="M12.8660606,12.7199795 C13.8618488,11.7353416 15.4763626,11.7336468 16.4721509,12.7199795 C17.4696531,13.7046175 17.471367,15.3027476 16.4738648,16.2856908 C15.4763626,17.2720235 13.8618488,17.2720235 12.8660606,16.2856908 C11.8685584,15.3010529 11.8702723,13.7063122 12.8660606,12.7199795" id="Fill-68"></path>
                        </g>
                    </g>
                </g>
            </g>
        </g>
    </g>
</svg>