<?xml version="1.0" encoding="UTF-8"?>
<svg width="212px" height="200px" viewBox="0 0 212 200" version="1.1" xmlns="http://www.w3.org/2000/svg" xmlns:xlink="http://www.w3.org/1999/xlink">
    <title>Logo</title>
    <defs>
        <path d="M0.601694915,62.4056604 L0.601694915,30.9577954 L34.9456949,30.9573396 L34.9460586,0.594339623 L70.3983051,0.594339623 L70.3983051,62.4056604 L0.601694915,62.4056604 Z" id="path-1"></path>
        <linearGradient x1="50%" y1="3.061617e-15%" x2="50%" y2="100%" id="linearGradient-3">
            <stop stop-color="#00FFE0" offset="0%"></stop>
            <stop stop-color="#3797B3" offset="100%"></stop>
        </linearGradient>
        <rect id="path-4" x="0.592592593" y="0.603448276" width="30.8148148" height="33.7931034"></rect>
        <linearGradient x1="50%" y1="3.061617e-15%" x2="50%" y2="100%" id="linearGradient-6">
            <stop stop-color="#FFFFFF" offset="0%"></stop>
            <stop stop-color="#00FFE0" offset="100%"></stop>
        </linearGradient>
        <linearGradient x1="50%" y1="3.061617e-15%" x2="50%" y2="100%" id="linearGradient-7">
            <stop stop-color="#294B86" offset="0%"></stop>
            <stop stop-color="#00FFE0" offset="100%"></stop>
        </linearGradient>
        <path d="M73,59.9991789 C73,67.1769721 67.1786143,73 59.9991789,73 C52.82467,73 47.0032843,67.1786143 47,60.0008211 C47.0016421,52.8213857 52.82467,47.0016421 60.0008211,47 C67.1786143,47.0016421 73,52.8213857 73,59.9991789 Z" id="path-8"></path>
        <filter x="-57.7%" y="-57.7%" width="215.4%" height="215.4%" filterUnits="objectBoundingBox" id="filter-9">
            <feOffset dx="0" dy="0" in="SourceAlpha" result="shadowOffsetOuter1"></feOffset>
            <feGaussianBlur stdDeviation="5" in="shadowOffsetOuter1" result="shadowBlurOuter1"></feGaussianBlur>
            <feColorMatrix values="0 0 0 0 1   0 0 0 0 1   0 0 0 0 1  0 0 0 1 0" type="matrix" in="shadowBlurOuter1"></feColorMatrix>
        </filter>
        <path d="M13.2916667,15.5 L13.2916667,0 L29,0 L29,31 L0,31 L0,15.5 L13.2916667,15.5 Z" id="path-10"></path>
        <linearGradient x1="50%" y1="3.061617e-15%" x2="50%" y2="100%" id="linearGradient-12">
            <stop stop-color="#00FFE0" offset="0%"></stop>
            <stop stop-color="#2E9BBB" offset="100%"></stop>
        </linearGradient>
        <linearGradient x1="50%" y1="3.061617e-15%" x2="50%" y2="100%" id="linearGradient-13">
            <stop stop-color="#00FFE0" offset="0%"></stop>
            <stop stop-color="#2E9BBB" offset="100%"></stop>
        </linearGradient>
        <linearGradient x1="50%" y1="3.061617e-15%" x2="50%" y2="100%" id="linearGradient-14">
            <stop stop-color="#FFFFFF" offset="0%"></stop>
            <stop stop-color="#00FFE0" offset="100%"></stop>
        </linearGradient>
        <linearGradient x1="50%" y1="3.061617e-15%" x2="50%" y2="100%" id="linearGradient-15">
            <stop stop-color="#FFFFFF" offset="0%"></stop>
            <stop stop-color="#00FFE0" offset="100%"></stop>
        </linearGradient>
    </defs>
    <g id="Page-2" stroke="none" stroke-width="1" fill="none" fill-rule="evenodd">
        <g id="Home-1" transform="translate(-141.000000, -160.000000)">
            <g id="Header">
                <g id="Logo" transform="translate(141.000000, 160.000000)">
                    <path d="M46.26,164.87 L41.25,159.41 C42.67,158.45 43.78,157.185 44.58,155.615 C45.38,154.045 45.78,152.29 45.78,150.35 C45.78,148.27 45.315,146.405 44.385,144.755 C43.455,143.105 42.185,141.82 40.575,140.9 C38.965,139.98 37.17,139.52 35.19,139.52 C33.21,139.52 31.415,139.98 29.805,140.9 C28.195,141.82 26.925,143.105 25.995,144.755 C25.065,146.405 24.6,148.27 24.6,150.35 C24.6,152.43 25.065,154.3 25.995,155.96 C26.925,157.62 28.195,158.91 29.805,159.83 C31.415,160.75 33.21,161.21 35.19,161.21 C36.15,161.21 37.03,161.11 37.83,160.91 L37.83,160.91 L41.13,164.87 L46.26,164.87 Z M35.19,157.28 C33.95,157.28 32.86,157 31.92,156.44 C30.98,155.88 30.245,155.075 29.715,154.025 C29.185,152.975 28.92,151.75 28.92,150.35 C28.92,148.95 29.185,147.725 29.715,146.675 C30.245,145.625 30.98,144.82 31.92,144.26 C32.86,143.7 33.95,143.42 35.19,143.42 C36.43,143.42 37.52,143.7 38.46,144.26 C39.4,144.82 40.135,145.625 40.665,146.675 C41.195,147.725 41.46,148.95 41.46,150.35 C41.46,151.75 41.195,152.975 40.665,154.025 C40.135,155.075 39.4,155.88 38.46,156.44 C37.52,157 36.43,157.28 35.19,157.28 Z M60.63,157.641 L60.63,161 L64.86,161 L64.86,144.38 L60.63,144.38 L60.63,153.2 C60.63,154.66 60.27,155.78 59.55,156.56 C58.83,157.34 57.86,157.73 56.64,157.73 C55.48,157.73 54.56,157.365 53.88,156.635 C53.2,155.905 52.86,154.88 52.86,153.56 L52.86,153.56 L52.86,144.38 L48.66,144.38 L48.66,154.04 C48.66,156.3 49.23,158.06 50.37,159.32 C51.51,160.58 53.04,161.21 54.96,161.21 C56.28,161.21 57.445,160.895 58.455,160.265 C59.465,159.635 60.19,158.76 60.63,157.64 L60.63,157.641 Z M70.83,141.89 C71.61,141.89 72.24,141.675 72.72,141.245 C73.2,140.815 73.44,140.27 73.44,139.61 C73.44,138.93 73.2,138.375 72.72,137.945 C72.24,137.515 71.61,137.3 70.83,137.3 C70.05,137.3 69.42,137.515 68.94,137.945 C68.46,138.375 68.22,138.93 68.22,139.61 C68.22,140.27 68.46,140.815 68.94,141.245 C69.42,141.675 70.05,141.89 70.83,141.89 Z M72.93,161 L72.93,144.38 L68.7,144.38 L68.7,161 L72.93,161 Z M84.24,161.21 C86.38,161.21 88.165,160.63 89.595,159.47 C91.025,158.31 91.92,156.73 92.28,154.73 L92.28,154.73 L87.81,154.73 C87.63,155.61 87.22,156.305 86.58,156.815 C85.94,157.325 85.13,157.58 84.15,157.58 C83.03,157.58 82.095,157.165 81.345,156.335 C80.595,155.505 80.22,154.29 80.22,152.69 C80.22,151.09 80.595,149.875 81.345,149.045 C82.095,148.215 83.03,147.8 84.15,147.8 C85.13,147.8 85.94,148.055 86.58,148.565 C87.22,149.075 87.63,149.77 87.81,150.65 L87.81,150.65 L92.28,150.65 C91.92,148.65 91.025,147.07 89.595,145.91 C88.165,144.75 86.38,144.17 84.24,144.17 C82.62,144.17 81.18,144.51 79.92,145.19 C78.66,145.87 77.68,146.855 76.98,148.145 C76.28,149.435 75.93,150.95 75.93,152.69 C75.93,154.43 76.28,155.94 76.98,157.22 C77.68,158.5 78.66,159.485 79.92,160.175 C81.18,160.865 82.62,161.21 84.24,161.21 Z M99.51,161 L99.51,153.74 L105,161 L110.16,161 L102.99,152.66 L109.98,144.38 L104.97,144.38 L99.51,151.28 L99.51,138.8 L95.28,138.8 L95.28,161 L99.51,161 Z M116.43,168.92 L116.43,157.52 C116.85,158.64 117.555,159.535 118.545,160.205 C119.535,160.875 120.73,161.21 122.13,161.21 C123.53,161.21 124.79,160.87 125.91,160.19 C127.03,159.51 127.905,158.525 128.535,157.235 C129.165,155.945 129.48,154.43 129.48,152.69 C129.48,150.95 129.165,149.435 128.535,148.145 C127.905,146.855 127.03,145.87 125.91,145.19 C124.79,144.51 123.53,144.17 122.13,144.17 C120.73,144.17 119.535,144.5 118.545,145.16 C117.555,145.82 116.85,146.71 116.43,147.83 L116.43,147.83 L116.43,144.38 L112.2,144.38 L112.2,168.92 L116.43,168.92 Z M120.81,157.49 C119.53,157.49 118.475,157.055 117.645,156.185 C116.815,155.315 116.4,154.15 116.4,152.69 C116.4,151.21 116.815,150.035 117.645,149.165 C118.475,148.295 119.53,147.86 120.81,147.86 C122.13,147.86 123.19,148.29 123.99,149.15 C124.79,150.01 125.19,151.19 125.19,152.69 C125.19,154.19 124.79,155.365 123.99,156.215 C123.19,157.065 122.13,157.49 120.81,157.49 Z M140.16,161.21 C141.78,161.21 143.235,160.865 144.525,160.175 C145.815,159.485 146.83,158.5 147.57,157.22 C148.31,155.94 148.68,154.43 148.68,152.69 C148.68,150.95 148.31,149.435 147.57,148.145 C146.83,146.855 145.815,145.87 144.525,145.19 C143.235,144.51 141.78,144.17 140.16,144.17 C138.54,144.17 137.085,144.51 135.795,145.19 C134.505,145.87 133.49,146.855 132.75,148.145 C132.01,149.435 131.64,150.95 131.64,152.69 C131.64,154.43 132.01,155.94 132.75,157.22 C133.49,158.5 134.505,159.485 135.795,160.175 C137.085,160.865 138.54,161.21 140.16,161.21 Z M140.16,157.55 C138.98,157.55 137.98,157.135 137.16,156.305 C136.34,155.475 135.93,154.27 135.93,152.69 C135.93,151.11 136.34,149.905 137.16,149.075 C137.98,148.245 138.98,147.83 140.16,147.83 C141.34,147.83 142.34,148.245 143.16,149.075 C143.98,149.905 144.39,151.11 144.39,152.69 C144.39,154.27 143.98,155.475 143.16,156.305 C142.34,157.135 141.34,157.55 140.16,157.55 Z M153.81,141.89 C154.59,141.89 155.22,141.675 155.7,141.245 C156.18,140.815 156.42,140.27 156.42,139.61 C156.42,138.93 156.18,138.375 155.7,137.945 C155.22,137.515 154.59,137.3 153.81,137.3 C153.03,137.3 152.4,137.515 151.92,137.945 C151.44,138.375 151.2,138.93 151.2,139.61 C151.2,140.27 151.44,140.815 151.92,141.245 C152.4,141.675 153.03,141.89 153.81,141.89 Z M155.91,161 L155.91,144.38 L151.68,144.38 L151.68,161 L155.91,161 Z M163.98,161 L163.98,152.18 C163.98,150.72 164.34,149.6 165.06,148.82 C165.78,148.04 166.74,147.65 167.94,147.65 C169.12,147.65 170.05,148.015 170.73,148.745 C171.41,149.475 171.75,150.5 171.75,151.82 L171.75,151.82 L171.75,161 L175.95,161 L175.95,151.34 C175.95,149.06 175.38,147.29 174.24,146.03 C173.1,144.77 171.57,144.14 169.65,144.14 C168.33,144.14 167.165,144.455 166.155,145.085 C165.145,145.715 164.42,146.59 163.98,147.71 L163.98,147.71 L163.98,144.38 L159.75,144.38 L159.75,161 L163.98,161 Z M188.55,161 L188.55,157.37 L186.9,157.37 C186.14,157.37 185.6,157.21 185.28,156.89 C184.96,156.57 184.8,156.01 184.8,155.21 L184.8,155.21 L184.8,147.95 L188.52,147.95 L188.52,144.38 L184.8,144.38 L184.8,140.27 L180.57,140.27 L180.57,144.38 L178.26,144.38 L178.26,147.95 L180.57,147.95 L180.57,155.15 C180.57,157.25 181.065,158.75 182.055,159.65 C183.045,160.55 184.47,161 186.33,161 L186.33,161 L188.55,161 Z" id="Quickpoint" fill="#FFFFFF" fill-rule="nonzero"></path>
                    <path d="M6.307,194 C7.651,194 8.677,193.691 9.385,193.073 C10.093,192.455 10.447,191.618 10.447,190.562 C10.447,189.794 10.21,189.122 9.736,188.546 C9.262,187.97 8.641,187.604 7.873,187.448 C8.557,187.28 9.109,186.947 9.529,186.449 C9.949,185.951 10.159,185.3 10.159,184.496 C10.159,183.5 9.82,182.717 9.142,182.147 C8.464,181.577 7.489,181.292 6.217,181.292 L6.217,181.292 L1.249,181.292 L1.249,194 L6.307,194 Z M5.839,186.764 L3.301,186.764 L3.301,182.966 L5.767,182.966 C6.535,182.966 7.108,183.134 7.486,183.47 C7.864,183.806 8.053,184.268 8.053,184.856 C8.053,185.456 7.864,185.924 7.486,186.26 C7.108,186.596 6.559,186.764 5.839,186.764 L5.839,186.764 Z M5.893,192.308 L3.301,192.308 L3.301,188.258 L5.875,188.258 C6.655,188.258 7.261,188.438 7.693,188.798 C8.125,189.158 8.341,189.656 8.341,190.292 C8.341,190.928 8.128,191.423 7.702,191.777 C7.276,192.131 6.673,192.308 5.893,192.308 L5.893,192.308 Z M15.955,194.144 C16.783,194.144 17.509,193.943 18.133,193.541 C18.757,193.139 19.195,192.572 19.447,191.84 L19.447,191.84 L19.447,194 L21.517,194 L21.517,184.082 L19.447,184.082 L19.447,189.338 C19.447,190.346 19.201,191.114 18.709,191.642 C18.217,192.17 17.563,192.434 16.747,192.434 C15.955,192.434 15.331,192.191 14.875,191.705 C14.419,191.219 14.191,190.526 14.191,189.626 L14.191,189.626 L14.191,184.082 L12.139,184.082 L12.139,189.842 C12.139,191.222 12.487,192.284 13.183,193.028 C13.879,193.772 14.803,194.144 15.955,194.144 Z M27.943,194.126 C29.011,194.126 29.86,193.868 30.49,193.352 C31.12,192.836 31.435,192.164 31.435,191.336 C31.435,190.664 31.27,190.133 30.94,189.743 C30.61,189.353 30.214,189.068 29.752,188.888 C29.29,188.708 28.687,188.534 27.943,188.366 C27.379,188.234 26.944,188.114 26.638,188.006 C26.332,187.898 26.077,187.748 25.873,187.556 C25.669,187.364 25.567,187.112 25.567,186.8 C25.567,186.38 25.708,186.047 25.99,185.801 C26.272,185.555 26.671,185.432 27.187,185.432 C27.811,185.432 28.312,185.597 28.69,185.927 C29.068,186.257 29.299,186.692 29.383,187.232 L29.383,187.232 L31.327,187.232 C31.171,186.236 30.742,185.441 30.04,184.847 C29.338,184.253 28.405,183.956 27.241,183.956 C26.125,183.956 25.252,184.217 24.622,184.739 C23.992,185.261 23.677,185.942 23.677,186.782 C23.677,187.43 23.836,187.943 24.154,188.321 C24.472,188.699 24.856,188.972 25.306,189.14 C25.756,189.308 26.341,189.476 27.061,189.644 C27.625,189.764 28.069,189.881 28.393,189.995 C28.717,190.109 28.987,190.268 29.203,190.472 C29.419,190.676 29.527,190.952 29.527,191.3 C29.527,191.696 29.386,192.023 29.104,192.281 C28.822,192.539 28.435,192.668 27.943,192.668 C27.259,192.668 26.707,192.5 26.287,192.164 C25.867,191.828 25.627,191.39 25.567,190.85 L25.567,190.85 L23.569,190.85 C23.725,191.882 24.184,192.686 24.946,193.262 C25.708,193.838 26.707,194.126 27.943,194.126 Z M34.513,182.372 C34.909,182.372 35.23,182.264 35.476,182.048 C35.722,181.832 35.845,181.55 35.845,181.202 C35.845,180.854 35.722,180.566 35.476,180.338 C35.23,180.11 34.909,179.996 34.513,179.996 C34.117,179.996 33.799,180.11 33.559,180.338 C33.319,180.566 33.199,180.854 33.199,181.202 C33.199,181.55 33.319,181.832 33.559,182.048 C33.799,182.264 34.117,182.372 34.513,182.372 Z M35.539,194 L35.539,184.082 L33.487,184.082 L33.487,194 L35.539,194 Z M40.075,194 L40.075,188.726 C40.075,187.718 40.321,186.953 40.813,186.431 C41.305,185.909 41.959,185.648 42.775,185.648 C43.567,185.648 44.191,185.891 44.647,186.377 C45.103,186.863 45.331,187.55 45.331,188.438 L45.331,188.438 L45.331,194 L47.383,194 L47.383,188.222 C47.383,186.842 47.035,185.78 46.339,185.036 C45.643,184.292 44.719,183.92 43.567,183.92 C42.751,183.92 42.031,184.124 41.407,184.532 C40.783,184.94 40.339,185.516 40.075,186.26 L40.075,186.26 L40.075,184.082 L38.023,184.082 L38.023,194 L40.075,194 Z M54.187,194.126 C55.015,194.126 55.765,193.973 56.437,193.667 C57.109,193.361 57.655,192.938 58.075,192.398 C58.495,191.858 58.771,191.24 58.903,190.544 L58.903,190.544 L56.707,190.544 C56.599,191.12 56.308,191.582 55.834,191.93 C55.36,192.278 54.781,192.452 54.097,192.452 C53.317,192.452 52.663,192.206 52.135,191.714 C51.607,191.222 51.325,190.466 51.289,189.446 L51.289,189.446 L58.921,189.446 C58.969,189.194 58.993,188.9 58.993,188.564 C58.993,187.7 58.798,186.917 58.408,186.215 C58.018,185.513 57.46,184.961 56.734,184.559 C56.008,184.157 55.159,183.956 54.187,183.956 C53.227,183.956 52.378,184.16 51.64,184.568 C50.902,184.976 50.323,185.564 49.903,186.332 C49.483,187.1 49.273,188 49.273,189.032 C49.273,190.076 49.483,190.982 49.903,191.75 C50.323,192.518 50.902,193.106 51.64,193.514 C52.378,193.922 53.227,194.126 54.187,194.126 Z M56.923,188.51 L51.289,188.51 C51.337,187.55 51.631,186.824 52.171,186.332 C52.711,185.84 53.383,185.594 54.187,185.594 C54.691,185.594 55.156,185.699 55.582,185.909 C56.008,186.119 56.344,186.443 56.59,186.881 C56.836,187.319 56.947,187.862 56.923,188.51 L56.923,188.51 Z M64.933,194.126 C66.001,194.126 66.85,193.868 67.48,193.352 C68.11,192.836 68.425,192.164 68.425,191.336 C68.425,190.664 68.26,190.133 67.93,189.743 C67.6,189.353 67.204,189.068 66.742,188.888 C66.28,188.708 65.677,188.534 64.933,188.366 C64.369,188.234 63.934,188.114 63.628,188.006 C63.322,187.898 63.067,187.748 62.863,187.556 C62.659,187.364 62.557,187.112 62.557,186.8 C62.557,186.38 62.698,186.047 62.98,185.801 C63.262,185.555 63.661,185.432 64.177,185.432 C64.801,185.432 65.302,185.597 65.68,185.927 C66.058,186.257 66.289,186.692 66.373,187.232 L66.373,187.232 L68.317,187.232 C68.161,186.236 67.732,185.441 67.03,184.847 C66.328,184.253 65.395,183.956 64.231,183.956 C63.115,183.956 62.242,184.217 61.612,184.739 C60.982,185.261 60.667,185.942 60.667,186.782 C60.667,187.43 60.826,187.943 61.144,188.321 C61.462,188.699 61.846,188.972 62.296,189.14 C62.746,189.308 63.331,189.476 64.051,189.644 C64.615,189.764 65.059,189.881 65.383,189.995 C65.707,190.109 65.977,190.268 66.193,190.472 C66.409,190.676 66.517,190.952 66.517,191.3 C66.517,191.696 66.376,192.023 66.094,192.281 C65.812,192.539 65.425,192.668 64.933,192.668 C64.249,192.668 63.697,192.5 63.277,192.164 C62.857,191.828 62.617,191.39 62.557,190.85 L62.557,190.85 L60.559,190.85 C60.715,191.882 61.174,192.686 61.936,193.262 C62.698,193.838 63.697,194.126 64.933,194.126 Z M74.437,194.126 C75.505,194.126 76.354,193.868 76.984,193.352 C77.614,192.836 77.929,192.164 77.929,191.336 C77.929,190.664 77.764,190.133 77.434,189.743 C77.104,189.353 76.708,189.068 76.246,188.888 C75.784,188.708 75.181,188.534 74.437,188.366 C73.873,188.234 73.438,188.114 73.132,188.006 C72.826,187.898 72.571,187.748 72.367,187.556 C72.163,187.364 72.061,187.112 72.061,186.8 C72.061,186.38 72.202,186.047 72.484,185.801 C72.766,185.555 73.165,185.432 73.681,185.432 C74.305,185.432 74.806,185.597 75.184,185.927 C75.562,186.257 75.793,186.692 75.877,187.232 L75.877,187.232 L77.821,187.232 C77.665,186.236 77.236,185.441 76.534,184.847 C75.832,184.253 74.899,183.956 73.735,183.956 C72.619,183.956 71.746,184.217 71.116,184.739 C70.486,185.261 70.171,185.942 70.171,186.782 C70.171,187.43 70.33,187.943 70.648,188.321 C70.966,188.699 71.35,188.972 71.8,189.14 C72.25,189.308 72.835,189.476 73.555,189.644 C74.119,189.764 74.563,189.881 74.887,189.995 C75.211,190.109 75.481,190.268 75.697,190.472 C75.913,190.676 76.021,190.952 76.021,191.3 C76.021,191.696 75.88,192.023 75.598,192.281 C75.316,192.539 74.929,192.668 74.437,192.668 C73.753,192.668 73.201,192.5 72.781,192.164 C72.361,191.828 72.121,191.39 72.061,190.85 L72.061,190.85 L70.063,190.85 C70.219,191.882 70.678,192.686 71.44,193.262 C72.202,193.838 73.201,194.126 74.437,194.126 Z M88.477,194.126 C89.365,194.126 90.115,193.964 90.727,193.64 C91.339,193.316 91.795,192.887 92.095,192.353 C92.395,191.819 92.545,191.24 92.545,190.616 C92.545,189.812 92.368,189.164 92.014,188.672 C91.66,188.18 91.228,187.805 90.718,187.547 C90.208,187.289 89.551,187.034 88.747,186.782 C88.111,186.566 87.61,186.377 87.244,186.215 C86.878,186.053 86.575,185.831 86.335,185.549 C86.095,185.267 85.975,184.91 85.975,184.478 C85.975,183.926 86.149,183.503 86.497,183.209 C86.845,182.915 87.307,182.768 87.883,182.768 C88.519,182.768 89.02,182.939 89.386,183.281 C89.752,183.623 89.977,184.034 90.061,184.514 L90.061,184.514 L92.275,184.514 C92.167,183.506 91.732,182.69 90.97,182.066 C90.208,181.442 89.179,181.13 87.883,181.13 C87.067,181.13 86.347,181.271 85.723,181.553 C85.099,181.835 84.619,182.234 84.283,182.75 C83.947,183.266 83.779,183.866 83.779,184.55 C83.779,185.33 83.953,185.96 84.301,186.44 C84.649,186.92 85.072,187.286 85.57,187.538 C86.068,187.79 86.713,188.042 87.505,188.294 C88.153,188.51 88.663,188.702 89.035,188.87 C89.407,189.038 89.719,189.269 89.971,189.563 C90.223,189.857 90.349,190.232 90.349,190.688 C90.349,191.216 90.178,191.648 89.836,191.984 C89.494,192.32 89.011,192.488 88.387,192.488 C87.691,192.488 87.136,192.29 86.722,191.894 C86.308,191.498 86.071,191.024 86.011,190.472 L86.011,190.472 L83.815,190.472 C83.875,191.192 84.109,191.828 84.517,192.38 C84.925,192.932 85.471,193.361 86.155,193.667 C86.839,193.973 87.613,194.126 88.477,194.126 Z M98.179,194.144 C99.007,194.144 99.733,193.943 100.357,193.541 C100.981,193.139 101.419,192.572 101.671,191.84 L101.671,191.84 L101.671,194 L103.741,194 L103.741,184.082 L101.671,184.082 L101.671,189.338 C101.671,190.346 101.425,191.114 100.933,191.642 C100.441,192.17 99.787,192.434 98.971,192.434 C98.179,192.434 97.555,192.191 97.099,191.705 C96.643,191.219 96.415,190.526 96.415,189.626 L96.415,189.626 L96.415,184.082 L94.363,184.082 L94.363,189.842 C94.363,191.222 94.711,192.284 95.407,193.028 C96.103,193.772 97.027,194.144 98.179,194.144 Z M108.259,198.716 L108.259,191.696 C108.511,192.428 108.955,193.016 109.591,193.46 C110.227,193.904 110.995,194.126 111.895,194.126 C112.759,194.126 113.53,193.922 114.208,193.514 C114.886,193.106 115.417,192.518 115.801,191.75 C116.185,190.982 116.377,190.076 116.377,189.032 C116.377,188 116.185,187.1 115.801,186.332 C115.417,185.564 114.886,184.976 114.208,184.568 C113.53,184.16 112.759,183.956 111.895,183.956 C110.995,183.956 110.227,184.178 109.591,184.622 C108.955,185.066 108.511,185.654 108.259,186.386 L108.259,186.386 L108.259,184.082 L106.207,184.082 L106.207,198.716 L108.259,198.716 Z M111.265,192.308 C110.689,192.308 110.173,192.173 109.717,191.903 C109.261,191.633 108.901,191.252 108.637,190.76 C108.373,190.268 108.241,189.692 108.241,189.032 C108.241,188.384 108.373,187.811 108.637,187.313 C108.901,186.815 109.261,186.431 109.717,186.161 C110.173,185.891 110.689,185.756 111.265,185.756 C112.177,185.756 112.909,186.05 113.461,186.638 C114.013,187.226 114.289,188.024 114.289,189.032 C114.289,190.052 114.013,190.853 113.461,191.435 C112.909,192.017 112.177,192.308 111.265,192.308 Z M120.409,198.716 L120.409,191.696 C120.661,192.428 121.105,193.016 121.741,193.46 C122.377,193.904 123.145,194.126 124.045,194.126 C124.909,194.126 125.68,193.922 126.358,193.514 C127.036,193.106 127.567,192.518 127.951,191.75 C128.335,190.982 128.527,190.076 128.527,189.032 C128.527,188 128.335,187.1 127.951,186.332 C127.567,185.564 127.036,184.976 126.358,184.568 C125.68,184.16 124.909,183.956 124.045,183.956 C123.145,183.956 122.377,184.178 121.741,184.622 C121.105,185.066 120.661,185.654 120.409,186.386 L120.409,186.386 L120.409,184.082 L118.357,184.082 L118.357,198.716 L120.409,198.716 Z M123.415,192.308 C122.839,192.308 122.323,192.173 121.867,191.903 C121.411,191.633 121.051,191.252 120.787,190.76 C120.523,190.268 120.391,189.692 120.391,189.032 C120.391,188.384 120.523,187.811 120.787,187.313 C121.051,186.815 121.411,186.431 121.867,186.161 C122.323,185.891 122.839,185.756 123.415,185.756 C124.327,185.756 125.059,186.05 125.611,186.638 C126.163,187.226 126.439,188.024 126.439,189.032 C126.439,190.052 126.163,190.853 125.611,191.435 C125.059,192.017 124.327,192.308 123.415,192.308 Z M135.043,194.126 C136.003,194.126 136.867,193.922 137.635,193.514 C138.403,193.106 139.003,192.518 139.435,191.75 C139.867,190.982 140.083,190.076 140.083,189.032 C140.083,188 139.867,187.1 139.435,186.332 C139.003,185.564 138.403,184.976 137.635,184.568 C136.867,184.16 136.003,183.956 135.043,183.956 C134.083,183.956 133.222,184.16 132.46,184.568 C131.698,184.976 131.098,185.564 130.66,186.332 C130.222,187.1 130.003,188 130.003,189.032 C130.003,190.064 130.222,190.967 130.66,191.741 C131.098,192.515 131.698,193.106 132.46,193.514 C133.222,193.922 134.083,194.126 135.043,194.126 Z M135.043,192.326 C134.515,192.326 134.029,192.206 133.585,191.966 C133.141,191.726 132.784,191.36 132.514,190.868 C132.244,190.376 132.109,189.764 132.109,189.032 C132.109,188.312 132.244,187.703 132.514,187.205 C132.784,186.707 133.141,186.338 133.585,186.098 C134.029,185.858 134.515,185.738 135.043,185.738 C135.571,185.738 136.057,185.858 136.501,186.098 C136.945,186.338 137.302,186.707 137.572,187.205 C137.842,187.703 137.977,188.312 137.977,189.032 C137.977,189.764 137.842,190.376 137.572,190.868 C137.302,191.36 136.945,191.726 136.501,191.966 C136.057,192.206 135.571,192.326 135.043,192.326 Z M144.115,194 L144.115,188.978 C144.115,187.97 144.388,187.247 144.934,186.809 C145.48,186.371 146.203,186.152 147.103,186.152 L147.103,186.152 L147.715,186.152 L147.715,183.92 C146.899,183.92 146.179,184.109 145.555,184.487 C144.931,184.865 144.451,185.378 144.115,186.026 L144.115,186.026 L144.115,184.082 L142.063,184.082 L142.063,194 L144.115,194 Z M154.231,194 L154.231,192.218 L153.241,192.218 C152.713,192.218 152.344,192.11 152.134,191.894 C151.924,191.678 151.819,191.288 151.819,190.724 L151.819,190.724 L151.819,185.828 L154.213,185.828 L154.213,184.082 L151.819,184.082 L151.819,181.616 L149.749,181.616 L149.749,184.082 L148.327,184.082 L148.327,185.828 L149.749,185.828 L149.749,190.688 C149.749,191.876 150.022,192.725 150.568,193.235 C151.114,193.745 151.915,194 152.971,194 L152.971,194 L154.231,194 Z M162.421,194 L162.421,189.068 L164.689,189.068 C166.117,189.068 167.209,188.723 167.965,188.033 C168.721,187.343 169.099,186.398 169.099,185.198 C169.099,183.986 168.73,183.032 167.992,182.336 C167.254,181.64 166.153,181.292 164.689,181.292 L164.689,181.292 L160.369,181.292 L160.369,194 L162.421,194 Z M164.473,187.394 L162.421,187.394 L162.421,182.984 L164.473,182.984 C165.361,182.984 166.006,183.173 166.408,183.551 C166.81,183.929 167.011,184.478 167.011,185.198 C167.011,186.662 166.165,187.394 164.473,187.394 L164.473,187.394 Z M175.435,194.126 C176.395,194.126 177.259,193.922 178.027,193.514 C178.795,193.106 179.395,192.518 179.827,191.75 C180.259,190.982 180.475,190.076 180.475,189.032 C180.475,188 180.259,187.1 179.827,186.332 C179.395,185.564 178.795,184.976 178.027,184.568 C177.259,184.16 176.395,183.956 175.435,183.956 C174.475,183.956 173.614,184.16 172.852,184.568 C172.09,184.976 171.49,185.564 171.052,186.332 C170.614,187.1 170.395,188 170.395,189.032 C170.395,190.064 170.614,190.967 171.052,191.741 C171.49,192.515 172.09,193.106 172.852,193.514 C173.614,193.922 174.475,194.126 175.435,194.126 Z M175.435,192.326 C174.907,192.326 174.421,192.206 173.977,191.966 C173.533,191.726 173.176,191.36 172.906,190.868 C172.636,190.376 172.501,189.764 172.501,189.032 C172.501,188.312 172.636,187.703 172.906,187.205 C173.176,186.707 173.533,186.338 173.977,186.098 C174.421,185.858 174.907,185.738 175.435,185.738 C175.963,185.738 176.449,185.858 176.893,186.098 C177.337,186.338 177.694,186.707 177.964,187.205 C178.234,187.703 178.369,188.312 178.369,189.032 C178.369,189.764 178.234,190.376 177.964,190.868 C177.694,191.36 177.337,191.726 176.893,191.966 C176.449,192.206 175.963,192.326 175.435,192.326 Z M184.507,194 L184.507,188.978 C184.507,187.97 184.78,187.247 185.326,186.809 C185.872,186.371 186.595,186.152 187.495,186.152 L187.495,186.152 L188.107,186.152 L188.107,183.92 C187.291,183.92 186.571,184.109 185.947,184.487 C185.323,184.865 184.843,185.378 184.507,186.026 L184.507,186.026 L184.507,184.082 L182.455,184.082 L182.455,194 L184.507,194 Z M194.623,194 L194.623,192.218 L193.633,192.218 C193.105,192.218 192.736,192.11 192.526,191.894 C192.316,191.678 192.211,191.288 192.211,190.724 L192.211,190.724 L192.211,185.828 L194.605,185.828 L194.605,184.082 L192.211,184.082 L192.211,181.616 L190.141,181.616 L190.141,184.082 L188.719,184.082 L188.719,185.828 L190.141,185.828 L190.141,190.688 C190.141,191.876 190.414,192.725 190.96,193.235 C191.506,193.745 192.307,194 193.363,194 L193.363,194 L194.623,194 Z M200.527,194.126 C201.427,194.126 202.195,193.904 202.831,193.46 C203.467,193.016 203.917,192.428 204.181,191.696 L204.181,191.696 L204.181,194 L206.233,194 L206.233,184.082 L204.181,184.082 L204.181,186.386 C203.917,185.654 203.467,185.066 202.831,184.622 C202.195,184.178 201.427,183.956 200.527,183.956 C199.663,183.956 198.892,184.16 198.214,184.568 C197.536,184.976 197.005,185.564 196.621,186.332 C196.237,187.1 196.045,188 196.045,189.032 C196.045,190.076 196.237,190.982 196.621,191.75 C197.005,192.518 197.536,193.106 198.214,193.514 C198.892,193.922 199.663,194.126 200.527,194.126 Z M201.157,192.308 C200.245,192.308 199.516,192.017 198.97,191.435 C198.424,190.853 198.151,190.052 198.151,189.032 C198.151,188.012 198.424,187.211 198.97,186.629 C199.516,186.047 200.245,185.756 201.157,185.756 C201.733,185.756 202.249,185.891 202.705,186.161 C203.161,186.431 203.521,186.815 203.785,187.313 C204.049,187.811 204.181,188.384 204.181,189.032 C204.181,189.692 204.049,190.268 203.785,190.76 C203.521,191.252 203.161,191.633 202.705,191.903 C202.249,192.173 201.733,192.308 201.157,192.308 Z M210.751,194 L210.751,180.68 L208.699,180.68 L208.699,194 L210.751,194 Z" id="BusinessSupportPortal" fill="#FFFFFF" fill-rule="nonzero"></path>
                    <g id="Mark" transform="translate(106.000000, 60.500000) rotate(180.000000) translate(-106.000000, -60.500000) translate(46.000000, 0.000000)">
                        <g id="Combined-Shape" transform="translate(24.000000, 29.000000)">
                            <mask id="mask-2" fill="white">
                                <use xlink:href="#path-1"></use>
                            </mask>
                            <g id="Mask"></g>
                            <path d="M36.1047492,4.16037736 C51.7198013,4.16628304 64.3798288,16.4043353 64.3813559,31.4977854 C64.3798288,46.5956647 51.7182741,58.8396226 36.1001678,58.8396226 C20.4896972,58.8396226 7.82661533,46.5971412 7.8220339,31.5022146 C7.82508819,16.4043353 20.4927514,4.16628304 36.1047492,4.16037736 Z M36.104461,6.74055425 C21.9658455,6.74590258 10.4936929,17.8289886 10.4909269,31.5020056 C10.495076,45.1723485 21.9630794,56.2594458 36.1003119,56.2594458 C50.2444595,56.2594458 61.7110799,45.1710114 61.7124629,31.4979944 C61.7110799,17.8289886 50.2458425,6.74590258 36.104461,6.74055425 Z" fill="url(#linearGradient-3)" mask="url(#mask-2)"></path>
                        </g>
                        <g id="Combined-Shape" transform="translate(24.000000, 22.000000)">
                            <mask id="mask-5" fill="white">
                                <use xlink:href="#path-4"></use>
                            </mask>
                            <g id="Mask"></g>
                            <path d="M32.5955367,6.63793103 C47.6471581,6.64405758 59.8503798,19.3397881 59.8518519,34.9977025 C59.8503798,50.6602119 47.6456861,63.362069 32.5911206,63.362069 C17.5439152,63.362069 5.33774946,50.6617436 5.33333333,35.0022975 C5.33627742,19.3397881 17.5468593,6.64405758 32.5955367,6.63793103 Z M32.5952588,9.31460129 C18.9668004,9.32014964 7.90859216,20.8177206 7.90592593,35.0020806 C7.90992528,49.1836665 18.9641342,60.6853987 32.5912595,60.6853987 C46.2250504,60.6853987 57.2779261,49.1822794 57.2792593,34.9979194 C57.2779261,20.8177206 46.2263835,9.32014964 32.5952588,9.31460129 Z" fill="url(#linearGradient-6)" mask="url(#mask-5)"></path>
                        </g>
                        <g id="Fill-52">
                            <use fill="black" fill-opacity="1" filter="url(#filter-9)" xlink:href="#path-8"></use>
                            <use fill="url(#linearGradient-7)" fill-rule="evenodd" xlink:href="#path-8"></use>
                        </g>
                        <g id="Combined-Shape" transform="translate(44.000000, 45.000000)">
                            <mask id="mask-11" fill="white">
                                <use xlink:href="#path-10"></use>
                            </mask>
                            <g id="Mask"></g>
                            <path d="M15.7091611,2.00610501 C22.9456251,2.00773861 28.8145944,7.7972365 28.8145944,14.9377261 C28.8145944,22.0782158 22.9456251,27.8709809 15.7075056,27.8709809 C8.47435272,27.8709809 2.60538344,22.0798494 2.60207231,14.9393597 C2.60372787,7.7972365 8.47435272,2.00773861 15.7091611,2.00610501 Z M15.7090202,4.20777371 C9.70589381,4.2091292 4.83470705,9.01300038 4.83333333,14.9392207 C4.83608076,20.8640855 9.70589381,25.6693122 15.7076465,25.6693122 C21.7135203,25.6693122 26.5833333,20.86273 26.5833333,14.9378652 C26.5833333,9.01300038 21.7135203,4.2091292 15.7090202,4.20777371 Z" fill="#FFFFFF" mask="url(#mask-11)"></path>
                        </g>
                        <g id="Group-6" opacity="0.3" transform="translate(5.000000, 4.000000)" fill="#FFFFFF">
                            <g id="Group-8" transform="translate(0.000000, 0.871893)">
                                <path d="M55.319291,2.9720205e-14 C56.7871217,2.9720205e-14 57.9765185,1.1877855 57.9765185,2.65176509 C57.9765185,4.11574468 56.7871217,5.30353018 55.3177778,5.30353018 C53.8499471,5.30353018 52.6605503,4.11574468 52.659037,2.65176509 C52.659037,1.1877855 53.8499471,2.9720205e-14 55.319291,2.9720205e-14" id="Fill-5"></path>
                                <path d="M94.09962,16.144602 C95.1237598,17.1647131 95.1237598,18.8183043 94.09962,19.8369283 C93.0754801,20.8585265 91.4177748,20.8585265 90.3966165,19.8369283 C89.3739674,18.8183043 89.3739674,17.1647131 90.3966165,16.1431149 C91.4177748,15.1230038 93.0754801,15.1244909 94.09962,16.144602" id="Fill-8"></path>
                                <path d="M110,55.1433868 C110,56.5863311 108.828027,57.7555622 107.380208,57.7540761 C105.932388,57.7555622 104.760415,56.5848435 104.761905,55.1433868 C104.760415,53.7004426 105.932388,52.5312114 107.381699,52.5297238 C108.828027,52.5297238 109.998509,53.7004426 110,55.1433868" id="Fill-10"></path>
                                <path d="M94.1007377,94.140046 C93.0765979,95.160266 91.4188928,95.160266 90.3977345,94.1385588 C89.3735947,93.1183387 89.3735947,91.4645709 90.3977345,90.445838 C91.4188928,89.425618 93.0765979,89.425618 94.1007377,90.445838 C95.1248775,91.4645709 95.121896,93.1183387 94.1007377,94.140046" id="Fill-12"></path>
                                <path d="M54.9977641,109.997598 C53.5514359,109.997598 52.3794627,108.827213 52.3809524,107.384679 C52.3794627,105.940659 53.5514359,104.77176 54.9992552,104.773246 C56.4455834,104.77176 57.6175566,105.940659 57.6190476,107.386166 C57.6190476,108.827213 56.4455834,109.996111 54.9977641,109.997598" id="Fill-14"></path>
                                <path d="M15.90038,94.139198 C14.8762402,93.1205739 14.8762402,91.4654957 15.90038,90.4468716 C16.9245199,89.4252734 18.5822252,89.4252734 19.6033835,90.4468716 C20.6260326,91.4640086 20.6260326,93.1190868 19.6033835,94.140685 C18.5822252,95.1607961 16.9245199,95.1593091 15.90038,94.139198" id="Fill-16"></path>
                                <path d="M2.9798386e-14,55.1396699 C2.9798386e-14,53.6986236 1.17197317,52.5282381 2.61979244,52.5297238 C4.06761171,52.5282381 5.23958488,53.6971364 5.23809524,55.1411571 C5.23958488,56.5822035 4.06761171,57.7511018 2.61830138,57.7540761 C1.17197317,57.7525889 0.00149106001,56.5822035 2.9798386e-14,55.1396699" id="Fill-18"></path>
                                <path d="M15.8992623,16.143754 C16.9234021,15.1235339 18.5811072,15.1235339 19.6022655,16.1452412 C20.6264053,17.163974 20.6264053,18.819229 19.6022655,19.8379619 C18.5811072,20.8581819 16.9234021,20.8581819 15.8992623,19.8379619 C14.8751225,18.819229 14.878104,17.163974 15.8992623,16.143754" id="Fill-20"></path>
                            </g>
                            <g id="Group-4" transform="translate(3.586957, 5.637850)">
                                <path d="M72.0969542,0.17846831 C73.450909,0.699959516 74.1226386,2.20386333 73.5933517,3.53935356 C73.0640648,4.87484379 71.53618,5.53372503 70.1807257,5.01223382 C68.8267709,4.49221993 68.1565407,2.9868388 68.6858276,1.65134857 C69.2136151,0.317335656 70.7429993,-0.343022897 72.0969542,0.17846831" id="Fill-22"></path>
                                <path d="M102.827212,29.239439 C103.411978,30.5512277 102.804721,32.0816478 101.471754,32.656294 C100.138787,33.2324174 98.5854083,32.6341354 98.0021415,31.3223467 C97.4188747,30.010558 98.0246325,28.4801379 99.3575995,27.9040145 C100.689067,27.3278911 102.240947,27.9261731 102.827212,29.239439" id="Fill-24"></path>
                                <path d="M103.45411,71.0213238 C102.924714,72.3569858 101.396513,73.0159518 100.042278,72.492916 C98.6865435,71.9728352 98.0176745,70.4672605 98.5470708,69.133076 C99.0749675,67.7988915 100.603168,67.138448 101.960402,67.6600063 C103.313138,68.1800871 103.983506,69.6856618 103.45411,71.0213238" id="Fill-26"></path>
                                <path d="M73.9529398,101.291374 C72.621423,101.867473 71.0664873,101.269216 70.4846985,99.9560059 C69.8984113,98.6442727 70.5056909,97.1124401 71.8387071,96.5392955 C73.1702238,95.9631964 74.7221606,96.5599759 75.3084478,97.8731863 C75.8932356,99.1849195 75.2844565,100.713798 73.9529398,101.291374" id="Fill-28"></path>
                                <path d="M31.5378855,101.90934 C30.1837562,101.3878 29.5119401,99.8837562 30.0427948,98.5496191 C30.5706503,97.212527 32.1002315,96.5521069 33.4543608,97.0766016 C34.80849,97.5951865 35.4788065,99.0992304 34.9494515,100.4378 C34.421596,101.771937 32.8920147,102.429402 31.5378855,101.90934" id="Fill-30"></path>
                                <path d="M1.39360046,72.8476245 C0.80883429,71.5360437 1.41609147,70.005866 2.74905846,69.4313109 C4.08202545,68.8552788 5.63540431,69.451989 6.21867108,70.7650468 C6.80193785,72.0766276 6.19618007,73.6068053 4.86321308,74.1843144 C3.53174549,74.7588695 1.97986603,74.1606823 1.39360046,72.8476245" id="Fill-32"></path>
                                <path d="M0.180597708,31.0662135 C0.710055921,29.7323253 2.23843529,29.0720286 3.5928284,29.593471 C4.94872138,30.1149134 5.61766858,31.6201538 5.08821037,32.9540419 C4.56025204,34.2879301 3.03187267,34.9482269 1.6744798,34.4282616 C0.321586581,33.9068192 -0.347360622,32.4015788 0.180597708,31.0662135" id="Fill-34"></path>
                                <path d="M29.6823626,0.796020756 C31.0138794,0.21998857 32.5688151,0.818175841 33.1506039,2.13123382 C33.7368911,3.4428148 33.1296115,4.97446962 31.7965953,5.5490248 C30.4650786,6.12357998 28.9131418,5.52686971 28.3268546,4.21381173 C27.7420668,2.90223075 28.3508459,1.37205294 29.6823626,0.796020756" id="Fill-36"></path>
                            </g>
                        </g>
                        <g id="Group-6">
                            <g id="Group-8" transform="translate(0.000000, 0.000000)">
                                <path d="M60.3483175,3.24536877e-14 C61.9495873,3.24536877e-14 63.2471111,1.29703075 63.2471111,2.89565823 C63.2471111,4.49428571 61.9495873,5.79131646 60.3466667,5.79131646 C58.7453968,5.79131646 57.447873,4.49428571 57.4462222,2.89565823 C57.4462222,1.29703075 58.7453968,3.24536877e-14 60.3483175,3.24536877e-14" id="Fill-5" fill="url(#linearGradient-12)"></path>
                                <path d="M102.654131,17.6294838 C103.771374,18.7434184 103.771374,20.5490968 102.654131,21.6614077 C101.536887,22.7769662 99.7284816,22.7769662 98.6144907,21.6614077 C97.4988735,20.5490968 97.4988735,18.7434184 98.6144907,17.6278599 C99.7284816,16.5139253 101.536887,16.5155491 102.654131,17.6294838" id="Fill-8" fill="url(#linearGradient-13)"></path>
                                <path d="M120,60.2151384 C120,61.7907959 118.721484,63.0675657 117.142045,63.0659429 C115.562605,63.0675657 114.284089,61.7891715 114.285714,60.2151384 C114.284089,58.639481 115.562605,57.3627111 117.143671,57.3610867 C118.721484,57.3610867 119.998373,58.639481 120,60.2151384" id="Fill-10" fill="url(#linearGradient-13)"></path>
                                <path d="M102.65535,102.798472 C101.538107,103.912526 99.7297012,103.912526 98.6157103,102.796848 C97.4984669,101.682794 97.4984669,99.8769229 98.6157103,98.7644933 C99.7297012,97.6504396 101.538107,97.6504396 102.65535,98.7644933 C103.772594,99.8769229 103.769341,101.682794 102.65535,102.798472" id="Fill-12" fill="url(#linearGradient-13)"></path>
                                <path d="M59.9975609,120.114505 C58.4197483,120.114505 57.1412321,118.836475 57.1428571,117.261266 C57.1412321,115.684433 58.4197483,114.408026 59.9991875,114.409649 C61.5770001,114.408026 62.8555162,115.684433 62.8571429,117.26289 C62.8571429,118.836475 61.5770001,120.112881 59.9975609,120.114505" id="Fill-14" fill="url(#linearGradient-13)"></path>
                                <path d="M17.3458691,102.797546 C16.2286256,101.685235 16.2286256,99.8779328 17.3458691,98.7656219 C18.4631126,97.6500634 20.2715184,97.6500634 21.3855093,98.7656219 C22.5011265,99.876309 22.5011265,101.683611 21.3855093,102.79917 C20.2715184,103.913104 18.4631126,103.911481 17.3458691,102.797546" id="Fill-16" fill="url(#linearGradient-13)"></path>
                                <path d="M3.25073302e-14,60.2110797 C3.25073302e-14,58.6374947 1.27851618,57.3594643 2.85795539,57.3610867 C4.43739459,57.3594643 5.71591077,58.6358707 5.71428571,60.2127036 C5.71591077,61.7862886 4.43739459,63.062695 2.85632878,63.0659429 C1.27851618,63.064319 0.00162661092,61.7862886 3.25073302e-14,60.2110797" id="Fill-18" fill="url(#linearGradient-13)"></path>
                                <path d="M17.3446498,17.6285578 C18.4618932,16.5145041 20.2702988,16.5145041 21.3842897,17.6301817 C22.5015331,18.7426114 22.5015331,20.5501067 21.3842897,21.6625363 C20.2702988,22.77659 18.4618932,22.77659 17.3446498,21.6625363 C16.2274064,20.5501067 16.2306589,18.7426114 17.3446498,17.6285578" id="Fill-20" fill="url(#linearGradient-13)"></path>
                            </g>
                            <g id="Group-4" transform="translate(3.809524, 4.115762)" fill="url(#linearGradient-14)">
                                <path d="M78.1811235,0.196139173 C79.6493368,0.769265316 80.3777528,2.42207669 79.8038,3.88979916 C79.2298473,5.35752163 77.5730263,6.08164135 76.103187,5.50851521 C74.6349736,4.93701265 73.9081836,3.28257769 74.4821363,1.81485522 C75.0544631,0.348756333 76.7129101,-0.37698697 78.1811235,0.196139173" id="Fill-22"></path>
                                <path d="M111.504668,32.1345532 C112.138782,33.5762274 111.480279,35.2581805 110.034825,35.8897247 C108.589371,36.5228924 106.904904,35.8653721 106.272416,34.423698 C105.639928,32.9820238 106.296805,31.3000706 107.74226,30.6669029 C109.186088,30.0337352 110.868929,30.6912556 111.504668,32.1345532" id="Fill-24"></path>
                                <path d="M112.184469,78.05343 C111.610398,79.5213413 109.953234,80.2455541 108.484717,79.6707305 C107.014574,79.0991544 106.28926,77.4445067 106.863331,75.9782192 C107.435777,74.5119318 109.09294,73.7860951 110.56471,74.359295 C112.0316,74.9308711 112.758541,76.5855188 112.184469,78.05343" id="Fill-26"></path>
                                <path d="M80.1937333,111.320639 C78.7498516,111.95378 77.0636969,111.296288 76.4328116,109.853051 C75.7970484,108.411438 76.4555755,106.727933 77.9010832,106.098038 C79.344965,105.464898 81.0278677,106.120767 81.6636309,107.564003 C82.2977682,109.005616 81.637615,110.685875 80.1937333,111.320639" id="Fill-28"></path>
                                <path d="M34.1993271,111.999793 C32.7309246,111.426613 32.0024148,109.773648 32.5780676,108.307412 C33.1504682,106.837929 34.8091288,106.112118 36.2775313,106.688545 C37.7459338,107.258478 38.4728174,108.911443 37.8987907,110.38255 C37.3263902,111.848785 35.6677296,112.571348 34.1993271,111.999793" id="Fill-30"></path>
                                <path d="M1.51120461,80.0605601 C0.877090777,78.6191144 1.53559361,76.9374277 2.98104797,76.3059836 C4.42650233,75.6729163 6.11096883,76.3287091 6.74345674,77.7717781 C7.37594464,79.2132238 6.71906774,80.8949104 5.27361338,81.529601 C3.82978495,82.1610451 2.14694438,81.503629 1.51120461,80.0605601" id="Fill-32"></path>
                                <path d="M0.195838117,34.142204 C0.769976627,32.6762422 2.42733397,31.9505668 3.89602257,32.5236393 C5.36633762,33.0967118 6.09173642,34.7509921 5.51759791,36.2169538 C4.94508585,37.6829156 3.28772851,38.408591 1.815787,37.8371419 C0.348724859,37.2640694 -0.376673939,35.6097892 0.195838117,34.142204" id="Fill-34"></path>
                                <path d="M32.1872191,0.874837966 C33.6311008,0.241770521 35.3172555,0.899186714 35.9481408,2.34225584 C36.583904,3.78370171 35.9253769,5.46701181 34.4798691,6.09845601 C33.0359874,6.7299002 31.3530847,6.07410726 30.7173215,4.63103814 C30.0831842,3.18959226 30.7433373,1.50790541 32.1872191,0.874837966" id="Fill-36"></path>
                            </g>
                        </g>
                        <g id="Group-7" transform="translate(18.000000, 20.000000)" fill="#FFFFFF" fill-opacity="0.3">
                            <path d="M41.792769,0.255252101 C43.120161,0.255252101 44.1985661,1.32154717 44.1985661,2.63760504 C44.1985661,3.95366292 43.120161,5.01995798 41.792769,5.01995798 C40.4653769,5.01995798 39.3869719,3.95366292 39.3869719,2.63760504 C39.3869719,1.32154717 40.4653769,0.255252101 41.792769,0.255252101" id="Fill-54"></path>
                            <path d="M71.1602542,11.6733779 C72.0994172,12.6050288 72.1010336,14.1113578 71.1602542,15.0430086 C70.2210911,15.9730587 68.6983862,15.9730587 67.7592231,15.0430086 C66.8184437,14.1129585 66.8184437,12.6050288 67.7592231,11.6733779 C68.6983862,10.7433278 70.2210911,10.7433278 71.1602542,11.6733779" id="Fill-56"></path>
                            <path d="M82.6913197,40.7552512 C82.6913197,42.0713086 81.6165094,43.1392043 80.2863307,43.137605 C78.9593845,43.137605 77.8797255,42.0713086 77.8797255,40.7552512 C77.8797255,39.4391938 78.9577683,38.3728992 80.287947,38.3728992 C81.6165094,38.3728992 82.6913197,39.4407949 82.6913197,40.7552512" id="Fill-58"></path>
                            <path d="M71.1602838,68.6453787 C70.2211602,69.5753898 68.6985192,69.5769905 67.7593957,68.6453787 C66.8186557,67.7153677 66.8186557,66.2075013 67.7577793,65.2774903 C68.6985192,64.3458786 70.2211602,64.3458786 71.1602838,65.2774903 C72.1010237,66.2075013 72.0994073,67.7153677 71.1602838,68.6453787" id="Fill-60"></path>
                            <path d="M41.7927699,80.0640756 C40.4653783,80.0640756 39.3853569,78.9977806 39.3869719,77.6817227 C39.3869719,76.3672659 40.4653783,75.2993697 41.7911531,75.2993697 C43.1201614,75.2993697 44.1985661,76.3656648 44.1985661,77.6833237 C44.1985661,78.9977806 43.1201614,80.0640756 41.7927699,80.0640756" id="Fill-62"></path>
                            <path d="M12.4251062,68.6453202 C11.4861797,67.7152311 11.4845637,66.2072383 12.4251062,65.2771492 C13.3640326,64.3470602 14.886354,64.3454594 15.8252805,65.2755484 C16.767439,66.2072383 16.767439,67.7152311 15.8252805,68.6453202 C14.886354,69.57701 13.3640326,69.5754092 12.4251062,68.6453202" id="Fill-64"></path>
                            <path d="M0.894218235,40.7552521 C0.894218235,39.4407963 1.9690285,38.3712999 3.29920721,38.3728992 C4.62615341,38.3728992 5.70581244,39.4391952 5.70581244,40.7552521 C5.70581244,42.071309 4.62776967,43.1392043 3.29759095,43.137605 C1.9690285,43.1392043 0.894218235,42.071309 0.894218235,40.7552521" id="Fill-66"></path>
                            <path d="M12.4251653,11.673949 C13.3641705,10.743938 14.8866195,10.7423373 15.8256247,11.673949 C16.7662461,12.60396 16.7678623,14.1134271 15.8272409,15.0418374 C14.8866195,15.9734491 13.3641705,15.9734491 12.4251653,15.0418374 C11.4845439,14.1118264 11.4861601,12.6055607 12.4251653,11.673949" id="Fill-68"></path>
                        </g>
                        <g id="Group-7" transform="translate(16.000000, 17.000000)" fill="url(#linearGradient-15)">
                            <path d="M44.0095673,1.46074933e-13 C45.4172288,1.46074933e-13 46.5608466,1.12892705 46.5608466,2.52228745 C46.5608466,3.91564786 45.4172288,5.04457491 44.0095673,5.04457491 C42.6019058,5.04457491 41.458288,3.91564786 41.458288,2.52228745 C41.458288,1.12892705 42.6019058,1.46074933e-13 44.0095673,1.46074933e-13" id="Fill-54"></path>
                            <path d="M74.5151286,12.7193749 C75.5110842,13.705749 75.5127984,15.3005567 74.5151286,16.2869308 C73.519173,17.2716101 71.9043878,17.2716101 70.9084321,16.2869308 C69.9107623,15.3022515 69.9107623,13.705749 70.9084321,12.7193749 C71.9043878,11.7346956 73.519173,11.7346956 74.5151286,12.7193749" id="Fill-56"></path>
                            <path d="M87.3813148,43.5094576 C87.3813148,44.9028175 86.2415091,46.0334392 84.8308925,46.031746 C83.4237039,46.031746 82.2787563,44.9028175 82.2787563,43.5094576 C82.2787563,42.1160977 83.4219899,40.9871711 84.8326065,40.9871711 C86.2415091,40.9871711 87.3813148,42.1177928 87.3813148,43.5094576" id="Fill-58"></path>
                            <path d="M74.51516,73.6683658 C73.5192462,74.6530037 71.9045289,74.6546984 70.9086151,73.6683658 C69.9109872,72.6837278 69.9109872,71.0872924 70.906901,70.1026545 C71.9045289,69.1163218 73.5192462,69.1163218 74.51516,70.1026545 C75.5127879,71.0872924 75.5110738,72.6837278 74.51516,73.6683658" id="Fill-60"></path>
                            <path d="M44.0095683,86.3883453 C42.6019073,86.3883453 41.4565754,85.2594182 41.458288,83.8660578 C41.458288,82.4743925 42.6019073,81.3437704 44.0078537,81.3437704 C45.4172292,81.3437704 46.5608466,82.4726974 46.5608466,83.8677529 C46.5608466,85.2594182 45.4172292,86.3883453 44.0095683,86.3883453" id="Fill-62"></path>
                            <path d="M12.8659979,73.6683038 C11.8702931,72.6835832 11.8685793,71.0870139 12.8659979,70.1022934 C13.8617026,69.1175728 15.4760811,69.115878 16.4717858,70.1005985 C17.4709181,71.0870139 17.4709181,72.6835832 16.4717858,73.6683038 C15.4760811,74.6547192 13.8617026,74.6530243 12.8659979,73.6683038" id="Fill-64"></path>
                            <path d="M-5.67460842e-14,43.5094586 C-5.67460842e-14,42.1177943 1.13980565,40.9854779 2.55042227,40.9871711 C3.9576109,40.9871711 5.10255853,42.1160992 5.10255853,43.5094586 C5.10255853,44.9028179 3.95932489,46.0334392 2.54870827,46.031746 C1.13980565,46.0334392 -5.67460842e-14,44.9028179 -5.67460842e-14,43.5094586" id="Fill-66"></path>
                            <path d="M12.8660606,12.7199795 C13.8618488,11.7353416 15.4763626,11.7336468 16.4721509,12.7199795 C17.4696531,13.7046175 17.471367,15.3027476 16.4738648,16.2856908 C15.4763626,17.2720235 13.8618488,17.2720235 12.8660606,16.2856908 C11.8685584,15.3010529 11.8702723,13.7063122 12.8660606,12.7199795" id="Fill-68"></path>
                        </g>
                    </g>
                </g>
            </g>
        </g>
    </g>
</svg>